<svg xmlns="http://www.w3.org/2000/svg" width="63" height="63" viewBox="0 0 63 63"><path d="M-788.5-98a31.3,31.3,0,0,1-12.261-2.475,31.4,31.4,0,0,1-10.013-6.751,31.394,31.394,0,0,1-6.751-10.013A31.3,31.3,0,0,1-820-129.5a31.3,31.3,0,0,1,2.475-12.261,31.394,31.394,0,0,1,6.751-10.013,31.4,31.4,0,0,1,10.013-6.751A31.3,31.3,0,0,1-788.5-161a31.3,31.3,0,0,1,12.261,2.475,31.4,31.4,0,0,1,10.013,6.751,31.4,31.4,0,0,1,6.751,10.013A31.3,31.3,0,0,1-757-129.5a31.3,31.3,0,0,1-2.475,12.261,31.4,31.4,0,0,1-6.751,10.013,31.4,31.4,0,0,1-10.013,6.751A31.3,31.3,0,0,1-788.5-98ZM-805-133a5.006,5.006,0,0,0-5,5,5.006,5.006,0,0,0,5,5h33a5.006,5.006,0,0,0,5-5,5.006,5.006,0,0,0-5-5Z" transform="translate(820 161)" fill="#ff8d73"/></svg>